Coordinates
version=1
nRows=9
nColumns=36
inDegrees=yes

Units are S.I. units (second, meters, Newtons, ...)
If the header above contains a line with 'inDegrees', this indicates whether rotational values are in degrees (yes) or radians (no).

endheader
time	pelvis_tilt	pelvis_list	pelvis_rotation	pelvis_tx	pelvis_ty	pelvis_tz	hip_flexion_r	hip_adduction_r	hip_rotation_r	knee_angle_r	knee_angle_r_beta	ankle_angle_r	subtalar_angle_r	mtp_angle_r	hip_flexion_l	hip_adduction_l	hip_rotation_l	knee_angle_l	knee_angle_l_beta	ankle_angle_l	subtalar_angle_l	mtp_angle_l	lumbar_extension	lumbar_bending	lumbar_rotation	arm_flex_r	arm_add_r	arm_rot_r	elbow_flex_r	pro_sup_r	arm_flex_l	arm_add_l	arm_rot_l	elbow_flex_l	pro_sup_l
      2.96666670	    -30.02334937	     -3.88736061	      4.56390183	      1.10847058	      0.69703527	     -0.19568382	     87.17505404	     -6.81585638	     -0.24221215	     94.67078664	      1.65231693	     44.83241929	     -1.88300230	     -7.49999987	     90.75255497	    -16.97952432	      0.61060908	     93.91398822	      1.63910831	     38.87940313	     -6.89277420	     -7.49999987	    -33.33014873	      2.35534175	      6.48182668	     75.44165435	    -15.94728403	      9.86347426	     47.23900298	     73.37222809	     69.45775132	    -26.00518542	     17.05272252	     59.65303678	     81.38057441
      2.98333330	    -32.55946294	     -4.36406565	      4.12630025	      1.13220322	      0.69182280	     -0.19833990	     90.53554880	     -7.29723926	     -1.21342857	     95.02747353	      1.65854229	     44.15261722	     -1.18455950	     -7.49999987	     94.14910645	    -16.94086801	      1.16120021	     94.42551106	      1.64803607	     38.10520786	     -7.53066458	     -7.49999987	    -32.97213945	      3.01684744	      6.17809421	     81.99264449	    -11.00601470	     15.15428411	     54.57783977	     82.62444228	     77.18547432	    -27.22643222	     22.93523537	     63.83523480	     82.83957584
      3.00000000	    -34.68807853	     -4.46709758	      3.98286970	      1.10390056	      0.68368896	     -0.21751694	     93.70556684	     -8.44463928	     -1.65658427	     95.34563779	      1.66409531	     43.00671022	     -0.44733582	     -7.49999987	     97.03205037	    -16.21074884	      1.25576817	     94.77314371	      1.65410340	     36.45694961	     -8.91874704	     -7.49999987	    -33.29873161	      4.01108082	      6.49523108	     91.84036395	     -7.88317748	     21.05137904	     60.18723456	     84.02644139	     86.90630028	    -26.24397107	     28.66213989	     70.17627010	     83.39478844
      3.01666670	    -36.22480590	     -4.24658972	      4.05441698	      1.09283793	      0.68049007	     -0.21037095	     96.36170888	     -9.56281730	     -1.66974778	     95.52440774	      1.66721543	     41.39059793	     -0.05914468	     -7.49999987	     99.18364412	    -15.35174003	      1.04437601	     94.90866064	      1.65646862	     35.12719501	     -9.89458504	     -7.49999987	    -33.84713766	      4.74370892	      6.74705756	    101.06625041	     -2.44359592	     25.30479003	     60.47300891	     94.51117738	     95.29332895	    -26.21622342	     33.59661054	     75.08772312	     83.72617170
      3.03333330	    -37.50625273	     -4.24688202	      4.35565439	      1.05276736	      0.67233737	     -0.20434050	     99.19372218	    -10.73775005	     -1.83894517	     95.79223941	      1.67188998	     39.57462295	      0.35691053	     -7.49999987	    101.67710863	    -14.31861523	      1.08086353	     94.96616801	      1.65747231	     33.23889050	    -11.42167628	     -7.49999987	    -34.63889358	      5.10586653	      8.47189361	    111.48173075	      1.13670499	     30.08119412	     57.51180941	     95.30135132	    106.05584259	    -23.50176792	     39.28321946	     75.37366027	     83.31225050
      3.05000000	    -38.07359850	     -4.35503681	      4.69975214	      1.04792990	      0.66585211	     -0.19515110	    101.21783838	    -11.66409603	     -2.16243264	     96.05655640	      1.67650318	     37.91736025	      0.56963838	     -7.49999987	    103.55046280	    -13.33223412	      1.45225773	     94.89822668	      1.65628651	     31.30141217	    -13.10238420	     -7.49999987	    -34.80210987	      5.42578903	      9.23870555	    116.63608967	      4.48134905	     31.94121043	     54.59520598	     94.64261705	    111.85284258	    -22.38259806	     43.16967591	     74.63544616	     80.61558174
      3.06666670	    -38.60486519	     -4.47252501	      5.15423816	      1.03261737	      0.67703075	     -0.20423597	    102.71255824	    -12.73723382	     -2.58423827	     95.61375919	      1.66877491	     36.12689750	      0.69453172	     -7.49999987	    104.86940221	    -12.14637097	      1.65281025	     94.13774279	      1.64301356	     28.98437740	    -14.85674854	     -7.49999987	    -34.91620144	      5.64057037	      9.99528519	    117.97955294	      4.10868074	     34.78085178	     53.40920688	     92.78469954	    114.08810314	    -19.44245088	     46.43134013	     71.94953194	     78.42562702
      3.08333330	    -38.48437486	     -4.47347792	      5.69527966	      1.04658888	      0.68710330	     -0.20514535	    102.72147065	    -13.74692339	     -2.97755120	     94.54897589	      1.65019093	     34.61455606	      0.89649423	     -7.49999987	    104.68764719	    -10.92973163	      1.69514120	     92.89620605	      1.62134466	     27.11690577	    -16.09283383	     -7.49999987	    -34.59472826	      6.05806059	      9.81445657	    114.92727539	      4.62817870	     35.55121061	     53.33311389	     90.79385837	    112.41475873	    -18.72418972	     46.77506588	     70.60811041	     77.26528894
      3.10000000	    -37.70061460	     -4.54325747	      6.13369286	      1.10971444	      0.70765371	     -0.20856610	    100.01940809	    -14.22064461	     -3.39403935	     92.37380856	      1.61222710	     33.81621148	      0.72757049	     -7.49999987	    102.11314633	     -9.68040329	      2.11906780	     90.87229993	      1.58602083	     26.31179172	    -17.11443699	     -7.49999987	    -33.80856926	      6.76651186	     10.64251485	    105.38755749	      3.06719966	     35.77880843	     56.30306863	     95.95013804	     99.91513057	    -15.90273088	     38.15760956	     68.33926625	     87.80318379
